M48
METRIC,LZ,000.000
;FILE_FORMAT=3:3
;TYPE=PLATED
;Layer: PTH_Through
;EasyEDA v6.5.50, 2025-06-12 20:37:31
;aa330ac2ebf7422699210df74fc2b7c5,bdb9141ddcec4d9e81ce16864cc1dc0d,10
;Gerber Generator version 0.2
;Holesize 1 = 0.501 mm
T01C0.501
;Holesize 2 = 0.800 mm
T02C0.800
;Holesize 3 = 1.021 mm
T03C1.021
;Holesize 4 = 1.101 mm
T04C1.101
%
G05
G90
T01
X044413Y-044500
X043973Y-034417
X041589Y-020418
X045276Y-031840
X003415Y-041111
X036576Y-032403
X031506Y-023386
X030222Y-015247
X024435Y-034468
X013732Y-038955
X015075Y-019658
T02
X049637Y-004064
X059837Y-004064
X049637Y-011811
X059837Y-011811
X049637Y-019304
X059837Y-019304
X049637Y-026924
X059837Y-026924
X049637Y-034417
X059837Y-034417
X049764Y-042037
X059964Y-042037
X049764Y-049403
X059964Y-049403
X049764Y-057277
X059964Y-057277
T03
X033147Y-003683
X030607Y-003683
X028067Y-003683
T04
X024384Y-016637
X024384Y-019177
X024384Y-021717
X024384Y-024257
X024384Y-026797
X024384Y-029337
X036957Y-029337
X036957Y-026797
X036957Y-024257
X036957Y-021717
X036957Y-019177
X036957Y-016637
X008255Y-036703
X005715Y-036703
X008255Y-034163
X005715Y-034163
X008255Y-031623
X005715Y-031623
X008255Y-029083
X005715Y-029083
X008255Y-026543
X005715Y-026543
X008255Y-024003
X005715Y-024003
X008255Y-021463
X005715Y-021463
X041656Y-041783
X039116Y-041783
X036576Y-041783
X034036Y-041783
X031496Y-041783
X028956Y-041783
X026416Y-041783
X023876Y-041783
X021336Y-041783
X018796Y-041783
M30
