G04 Layer: TopSolderMaskLayer*
G04 EasyEDA v6.5.50, 2025-06-12 20:37:31*
G04 aa330ac2ebf7422699210df74fc2b7c5,bdb9141ddcec4d9e81ce16864cc1dc0d,10*
G04 Gerber Generator version 0.2*
G04 Scale: 100 percent, Rotated: No, Reflected: No *
G04 Dimensions in millimeters *
G04 leading zeros omitted , absolute positions ,4 integer and 5 decimal *
%FSLAX45Y45*%
%MOMM*%

%AMMACRO1*4,1,8,-0.871,-0.9008,-0.9007,-0.8708,-0.9007,0.8711,-0.871,0.9008,0.8707,0.9008,0.9007,0.8711,0.9007,-0.8708,0.8707,-0.9008,-0.871,-0.9008,0*%
%AMMACRO2*4,1,8,-0.871,-0.9007,-0.9007,-0.8707,-0.9007,0.871,-0.871,0.9007,0.8707,0.9007,0.9007,0.871,0.9007,-0.8707,0.8707,-0.9007,-0.871,-0.9007,0*%
%AMMACRO3*4,1,8,-0.8707,-0.9,-0.8999,-0.8706,-0.8999,0.8708,-0.8707,0.9,0.8705,0.9,0.8999,0.8708,0.8999,-0.8706,0.8705,-0.9,-0.8707,-0.9,0*%
%ADD10MACRO1*%
%ADD11C,1.8016*%
%ADD12C,1.5016*%
%ADD13MACRO2*%
%ADD14MACRO3*%
%ADD15C,1.8000*%
%ADD16C,0.0145*%

%LPD*%
D10*
G01*
X2438400Y-1663712D03*
D11*
G01*
X2438400Y-1917700D03*
G01*
X2438400Y-2171700D03*
G01*
X2438400Y-2425700D03*
G01*
X2438400Y-2679700D03*
G01*
X2438400Y-2933700D03*
D10*
G01*
X3695700Y-2933712D03*
D11*
G01*
X3695700Y-2679700D03*
G01*
X3695700Y-2425700D03*
G01*
X3695700Y-2171700D03*
G01*
X3695700Y-1917700D03*
G01*
X3695700Y-1663700D03*
D12*
G01*
X4963693Y-406400D03*
G01*
X5983706Y-406400D03*
G01*
X4963693Y-1181100D03*
G01*
X5983706Y-1181100D03*
G01*
X4963693Y-1930400D03*
G01*
X5983706Y-1930400D03*
G01*
X4963693Y-2692400D03*
G01*
X5983706Y-2692400D03*
G01*
X4963693Y-3441700D03*
G01*
X5983706Y-3441700D03*
G01*
X4976393Y-4203700D03*
G01*
X5996406Y-4203700D03*
G01*
X4976393Y-4940300D03*
G01*
X5996406Y-4940300D03*
G01*
X4976393Y-5727700D03*
G01*
X5996406Y-5727700D03*
D13*
G01*
X3314700Y-368300D03*
D11*
G01*
X3060700Y-368300D03*
G01*
X2806700Y-368300D03*
D14*
G01*
X825500Y-3670312D03*
D15*
G01*
X571500Y-3670300D03*
G01*
X825500Y-3416300D03*
G01*
X571500Y-3416300D03*
G01*
X825500Y-3162300D03*
G01*
X571500Y-3162300D03*
G01*
X825500Y-2908300D03*
G01*
X571500Y-2908300D03*
G01*
X825500Y-2654300D03*
G01*
X571500Y-2654300D03*
G01*
X825500Y-2400300D03*
G01*
X571500Y-2400300D03*
G01*
X825500Y-2146300D03*
G01*
X571500Y-2146300D03*
D10*
G01*
X4165600Y-4178312D03*
D11*
G01*
X3911600Y-4178300D03*
G01*
X3657600Y-4178300D03*
G01*
X3403600Y-4178300D03*
G01*
X3149600Y-4178300D03*
D10*
G01*
X2895600Y-4178312D03*
D11*
G01*
X2641600Y-4178300D03*
G01*
X2387600Y-4178300D03*
G01*
X2133600Y-4178300D03*
G01*
X1879600Y-4178300D03*
M02*
