G04 Layer: TopLayer*
G04 EasyEDA v6.5.50, 2025-06-12 20:37:31*
G04 aa330ac2ebf7422699210df74fc2b7c5,bdb9141ddcec4d9e81ce16864cc1dc0d,10*
G04 Gerber Generator version 0.2*
G04 Scale: 100 percent, Rotated: No, Reflected: No *
G04 Dimensions in millimeters *
G04 leading zeros omitted , absolute positions ,4 integer and 5 decimal *
%FSLAX45Y45*%
%MOMM*%

%ADD10C,0.8000*%
%ADD11R,1.7000X1.7000*%
%ADD12C,1.7000*%
%ADD13C,1.4000*%
%ADD14C,0.9000*%
%ADD15C,0.0112*%

%LPD*%
G36*
X1652879Y-2031187D02*
G01*
X1648968Y-2030425D01*
X1645666Y-2028189D01*
X1643481Y-2024888D01*
X1642719Y-2020976D01*
X1643532Y-2017064D01*
X1644497Y-2014728D01*
X1649222Y-1998776D01*
X1652016Y-1982419D01*
X1652981Y-1965858D01*
X1652016Y-1949246D01*
X1649222Y-1932889D01*
X1644497Y-1916938D01*
X1638046Y-1901647D01*
X1629867Y-1887169D01*
X1620113Y-1873757D01*
X1608886Y-1861515D01*
X1596339Y-1850593D01*
X1579372Y-1839010D01*
X1562303Y-1821942D01*
X1550314Y-1811223D01*
X1537462Y-1802130D01*
X1523695Y-1794510D01*
X1509115Y-1788464D01*
X1493977Y-1784096D01*
X1478483Y-1781454D01*
X1462430Y-1780590D01*
X840689Y-1780590D01*
X836777Y-1779778D01*
X833475Y-1777593D01*
X831291Y-1774291D01*
X830529Y-1770430D01*
X831291Y-1766519D01*
X833475Y-1763217D01*
X2084933Y-511759D01*
X2088235Y-509574D01*
X2092147Y-508812D01*
X2682189Y-508812D01*
X2685745Y-509422D01*
X2688793Y-511251D01*
X2693162Y-514959D01*
X2708605Y-525729D01*
X2725013Y-534822D01*
X2742285Y-542239D01*
X2760218Y-547878D01*
X2778607Y-551637D01*
X2797302Y-553567D01*
X2816098Y-553567D01*
X2834792Y-551637D01*
X2853182Y-547878D01*
X2871114Y-542239D01*
X2888386Y-534822D01*
X2904794Y-525729D01*
X2920238Y-514959D01*
X2927096Y-509117D01*
X2930194Y-507288D01*
X2933700Y-506679D01*
X2937205Y-507288D01*
X2940304Y-509117D01*
X2947162Y-514959D01*
X2962605Y-525729D01*
X2979013Y-534822D01*
X2996285Y-542239D01*
X3014218Y-547878D01*
X3032607Y-551637D01*
X3051302Y-553567D01*
X3070098Y-553567D01*
X3088792Y-551637D01*
X3107182Y-547878D01*
X3125114Y-542239D01*
X3142386Y-534822D01*
X3153410Y-528726D01*
X3157372Y-527507D01*
X3161436Y-527913D01*
X3165043Y-529945D01*
X3168548Y-533044D01*
X3179470Y-540308D01*
X3191256Y-546150D01*
X3203702Y-550367D01*
X3216605Y-552907D01*
X3230016Y-553821D01*
X3265830Y-553821D01*
X3265830Y-417169D01*
X3252470Y-417169D01*
X3248202Y-416204D01*
X3244748Y-413613D01*
X3242716Y-409803D01*
X3242411Y-405434D01*
X3245256Y-387045D01*
X3246170Y-368300D01*
X3245256Y-349554D01*
X3242411Y-331165D01*
X3242716Y-326796D01*
X3244748Y-322986D01*
X3248202Y-320395D01*
X3252470Y-319430D01*
X3265830Y-319430D01*
X3265830Y-293776D01*
X3266643Y-289864D01*
X3268827Y-286562D01*
X3272129Y-284378D01*
X3275990Y-283616D01*
X3353409Y-283616D01*
X3357270Y-284378D01*
X3360572Y-286562D01*
X3362756Y-289864D01*
X3363569Y-293776D01*
X3363569Y-319430D01*
X3405784Y-319430D01*
X3409696Y-320243D01*
X3412998Y-322427D01*
X3415182Y-325729D01*
X3415944Y-329590D01*
X3415944Y-407009D01*
X3415182Y-410870D01*
X3412998Y-414172D01*
X3409696Y-416356D01*
X3405784Y-417169D01*
X3363569Y-417169D01*
X3363569Y-553821D01*
X3399383Y-553821D01*
X3405124Y-553415D01*
X3409187Y-554024D01*
X3412744Y-556158D01*
X3415131Y-559511D01*
X3415944Y-563575D01*
X3415944Y-928065D01*
X3415182Y-931976D01*
X3412998Y-935228D01*
X2949803Y-1398422D01*
X2947873Y-1399946D01*
X2940050Y-1404620D01*
X2926892Y-1414780D01*
X2915005Y-1426362D01*
X2904490Y-1439214D01*
X2895498Y-1453184D01*
X2888183Y-1468120D01*
X2882595Y-1483766D01*
X2878836Y-1499920D01*
X2876956Y-1516430D01*
X2876956Y-1533042D01*
X2878836Y-1549552D01*
X2882595Y-1565706D01*
X2888183Y-1581353D01*
X2895498Y-1596288D01*
X2904490Y-1610258D01*
X2915005Y-1623110D01*
X2926892Y-1634693D01*
X2940050Y-1644853D01*
X2944622Y-1647596D01*
X2947365Y-1650034D01*
X2949092Y-1653235D01*
X2949549Y-1656892D01*
X2948635Y-1660448D01*
X2946552Y-1663496D01*
X2835808Y-1774240D01*
X2832557Y-1776425D01*
X2828645Y-1777187D01*
X2632354Y-1777187D01*
X2627985Y-1776222D01*
X2624480Y-1773478D01*
X2622499Y-1769516D01*
X2622397Y-1765046D01*
X2623007Y-1761794D01*
X2623921Y-1748383D01*
X2623921Y-1579016D01*
X2623007Y-1565605D01*
X2620467Y-1552702D01*
X2616250Y-1540256D01*
X2610408Y-1528470D01*
X2603144Y-1517548D01*
X2594457Y-1507642D01*
X2584551Y-1498955D01*
X2573629Y-1491691D01*
X2561844Y-1485849D01*
X2549398Y-1481632D01*
X2536494Y-1479092D01*
X2523083Y-1478178D01*
X2353716Y-1478178D01*
X2340305Y-1479092D01*
X2327402Y-1481632D01*
X2314956Y-1485849D01*
X2303170Y-1491691D01*
X2292248Y-1498955D01*
X2282342Y-1507642D01*
X2273655Y-1517548D01*
X2266391Y-1528470D01*
X2260549Y-1540256D01*
X2256332Y-1552702D01*
X2253792Y-1565605D01*
X2252878Y-1579016D01*
X2252878Y-1748383D01*
X2253792Y-1761794D01*
X2256332Y-1774698D01*
X2260549Y-1787143D01*
X2266391Y-1798929D01*
X2273655Y-1809851D01*
X2276754Y-1813356D01*
X2278786Y-1816963D01*
X2279192Y-1821027D01*
X2277973Y-1824989D01*
X2271877Y-1836013D01*
X2264460Y-1853285D01*
X2258822Y-1871218D01*
X2255062Y-1889607D01*
X2253132Y-1908302D01*
X2253132Y-1927098D01*
X2255062Y-1945792D01*
X2258822Y-1964182D01*
X2264460Y-1982114D01*
X2271877Y-1999386D01*
X2281123Y-2016099D01*
X2282393Y-2020112D01*
X2281885Y-2024278D01*
X2279751Y-2027885D01*
X2276348Y-2030323D01*
X2272233Y-2031187D01*
G37*

%LPD*%
G36*
X3110890Y-4309516D02*
G01*
X3107029Y-4308703D01*
X3103727Y-4306519D01*
X3101543Y-4303217D01*
X3100730Y-4299356D01*
X3100730Y-4227169D01*
X3091281Y-4227169D01*
X3087370Y-4226356D01*
X3084068Y-4224172D01*
X3081883Y-4220870D01*
X3081121Y-4217009D01*
X3081121Y-4139590D01*
X3081883Y-4135729D01*
X3084068Y-4132427D01*
X3087370Y-4130243D01*
X3091281Y-4129430D01*
X3100730Y-4129430D01*
X3100730Y-4103217D01*
X3101543Y-4099306D01*
X3103727Y-4096004D01*
X3107029Y-4093819D01*
X3110890Y-4093057D01*
X3188309Y-4093057D01*
X3192170Y-4093819D01*
X3195472Y-4096004D01*
X3197656Y-4099306D01*
X3198469Y-4103217D01*
X3198469Y-4129430D01*
X3211830Y-4129430D01*
X3216097Y-4130395D01*
X3219551Y-4132986D01*
X3221583Y-4136796D01*
X3221888Y-4141165D01*
X3219043Y-4159554D01*
X3218129Y-4178300D01*
X3219043Y-4197045D01*
X3221888Y-4215434D01*
X3221583Y-4219803D01*
X3219551Y-4223613D01*
X3216097Y-4226204D01*
X3211830Y-4227169D01*
X3198469Y-4227169D01*
X3198469Y-4299356D01*
X3197656Y-4303217D01*
X3195472Y-4306519D01*
X3192170Y-4308703D01*
X3188309Y-4309516D01*
G37*

%LPD*%
G36*
X3872890Y-4309516D02*
G01*
X3869029Y-4308703D01*
X3865727Y-4306519D01*
X3863543Y-4303217D01*
X3862730Y-4299356D01*
X3862730Y-4227169D01*
X3849370Y-4227169D01*
X3845102Y-4226204D01*
X3841648Y-4223613D01*
X3839616Y-4219803D01*
X3839311Y-4215434D01*
X3842156Y-4197045D01*
X3843070Y-4178300D01*
X3842156Y-4159554D01*
X3839311Y-4141165D01*
X3839616Y-4136796D01*
X3841648Y-4132986D01*
X3845102Y-4130395D01*
X3849370Y-4129430D01*
X3862730Y-4129430D01*
X3862730Y-4103217D01*
X3863543Y-4099306D01*
X3865727Y-4096004D01*
X3869029Y-4093819D01*
X3872890Y-4093057D01*
X3950309Y-4093057D01*
X3954170Y-4093819D01*
X3957472Y-4096004D01*
X3959656Y-4099306D01*
X3960469Y-4103217D01*
X3960469Y-4129430D01*
X3969918Y-4129430D01*
X3973829Y-4130243D01*
X3977132Y-4132427D01*
X3979316Y-4135729D01*
X3980078Y-4139590D01*
X3980078Y-4217009D01*
X3979316Y-4220870D01*
X3977132Y-4224172D01*
X3973829Y-4226356D01*
X3969918Y-4227169D01*
X3960469Y-4227169D01*
X3960469Y-4299356D01*
X3959656Y-4303217D01*
X3957472Y-4306519D01*
X3954170Y-4308703D01*
X3950309Y-4309516D01*
G37*

%LPD*%
G36*
X36068Y-6019292D02*
G01*
X32156Y-6018530D01*
X28905Y-6016294D01*
X26670Y-6013043D01*
X25908Y-6009132D01*
X25908Y-2940253D01*
X26720Y-2936290D01*
X29006Y-2932938D01*
X32410Y-2930753D01*
X36372Y-2930093D01*
X40284Y-2931007D01*
X43535Y-2933395D01*
X371652Y-3261461D01*
X383590Y-3272129D01*
X396443Y-3281273D01*
X410260Y-3288893D01*
X415086Y-3290874D01*
X418439Y-3293160D01*
X420674Y-3296615D01*
X421335Y-3300628D01*
X420420Y-3304590D01*
X417982Y-3307842D01*
X407568Y-3317138D01*
X241604Y-3483101D01*
X230936Y-3495040D01*
X221792Y-3507892D01*
X214172Y-3521710D01*
X208178Y-3536238D01*
X203809Y-3551377D01*
X201168Y-3566922D01*
X200253Y-3582924D01*
X200253Y-3781755D01*
X201168Y-3797757D01*
X203809Y-3813301D01*
X208178Y-3828440D01*
X214172Y-3842969D01*
X221792Y-3856786D01*
X230936Y-3869639D01*
X241604Y-3881577D01*
X312724Y-3952697D01*
X315061Y-3956354D01*
X315671Y-3960672D01*
X314401Y-3964787D01*
X311505Y-3968089D01*
X307543Y-3969816D01*
X304546Y-3970426D01*
X288747Y-3975557D01*
X273608Y-3982465D01*
X259384Y-3991051D01*
X246227Y-4001211D01*
X234340Y-4012742D01*
X223824Y-4025646D01*
X214833Y-4039615D01*
X207517Y-4054500D01*
X201930Y-4070146D01*
X198170Y-4086351D01*
X196291Y-4102811D01*
X196291Y-4119473D01*
X198170Y-4135932D01*
X201930Y-4152137D01*
X207517Y-4167784D01*
X214833Y-4182668D01*
X223824Y-4196638D01*
X234340Y-4209542D01*
X246227Y-4221073D01*
X259384Y-4231233D01*
X273608Y-4239818D01*
X288747Y-4246727D01*
X304546Y-4251858D01*
X320802Y-4255160D01*
X337362Y-4256582D01*
X353974Y-4256125D01*
X370433Y-4253738D01*
X377088Y-4251960D01*
X379679Y-4251655D01*
X1494129Y-4251655D01*
X1510131Y-4250740D01*
X1525676Y-4248099D01*
X1540814Y-4243730D01*
X1555343Y-4237736D01*
X1569161Y-4230116D01*
X1582013Y-4220972D01*
X1593951Y-4210304D01*
X1683613Y-4120642D01*
X1687322Y-4118254D01*
X1691690Y-4117695D01*
X1695856Y-4119016D01*
X1699107Y-4121962D01*
X1700784Y-4125976D01*
X1700631Y-4130344D01*
X1697888Y-4140962D01*
X1695043Y-4159554D01*
X1694129Y-4178300D01*
X1695043Y-4197045D01*
X1697888Y-4215638D01*
X1702612Y-4233824D01*
X1709115Y-4251452D01*
X1717395Y-4268317D01*
X1727352Y-4284268D01*
X1738833Y-4299102D01*
X1751787Y-4312767D01*
X1754936Y-4315460D01*
X1757222Y-4318254D01*
X1760626Y-4324400D01*
X1769770Y-4337253D01*
X1780438Y-4349242D01*
X1980387Y-4549140D01*
X1992325Y-4559858D01*
X2005177Y-4568952D01*
X2018995Y-4576572D01*
X2033524Y-4582617D01*
X2048662Y-4586986D01*
X2064207Y-4589627D01*
X2080209Y-4590491D01*
X4402277Y-4590491D01*
X4404309Y-4590694D01*
X4420616Y-4593996D01*
X4437176Y-4595418D01*
X4453788Y-4594961D01*
X4470196Y-4592574D01*
X4486300Y-4588357D01*
X4501743Y-4582363D01*
X4516424Y-4574590D01*
X4530140Y-4565243D01*
X4542739Y-4554321D01*
X4553966Y-4542078D01*
X4563719Y-4528667D01*
X4571898Y-4514189D01*
X4578350Y-4498898D01*
X4583023Y-4482947D01*
X4585868Y-4466590D01*
X4586833Y-4449622D01*
X4587798Y-4445863D01*
X4590084Y-4442714D01*
X4593336Y-4440682D01*
X4597146Y-4440021D01*
X4600956Y-4440834D01*
X4604156Y-4443018D01*
X4832908Y-4671771D01*
X4835093Y-4675022D01*
X4835906Y-4678934D01*
X4835906Y-4841087D01*
X4835448Y-4843983D01*
X4834229Y-4846624D01*
X4828794Y-4855057D01*
X4820666Y-4870958D01*
X4814265Y-4887620D01*
X4809642Y-4904841D01*
X4806848Y-4922469D01*
X4805934Y-4940300D01*
X4806848Y-4958130D01*
X4809642Y-4975758D01*
X4814265Y-4992979D01*
X4820666Y-5009642D01*
X4828794Y-5025542D01*
X4838496Y-5040528D01*
X4849723Y-5054396D01*
X4862322Y-5066995D01*
X4876190Y-5078222D01*
X4891176Y-5087975D01*
X4907076Y-5096052D01*
X4923739Y-5102453D01*
X4940960Y-5107076D01*
X4958588Y-5109870D01*
X4976418Y-5110784D01*
X4994249Y-5109870D01*
X5011877Y-5107076D01*
X5029098Y-5102453D01*
X5045760Y-5096052D01*
X5061661Y-5087975D01*
X5076647Y-5078222D01*
X5090515Y-5066995D01*
X5103114Y-5054396D01*
X5114340Y-5040528D01*
X5124094Y-5025542D01*
X5132171Y-5009642D01*
X5138572Y-4992979D01*
X5143195Y-4975758D01*
X5145989Y-4958130D01*
X5146903Y-4940300D01*
X5145989Y-4922469D01*
X5143195Y-4904841D01*
X5138572Y-4887620D01*
X5132171Y-4870958D01*
X5124094Y-4855057D01*
X5118557Y-4846523D01*
X5117338Y-4843881D01*
X5116880Y-4840986D01*
X5116880Y-4616805D01*
X5116017Y-4600803D01*
X5113375Y-4585258D01*
X5109006Y-4570120D01*
X5102961Y-4555591D01*
X5095341Y-4541774D01*
X5086248Y-4528921D01*
X5075529Y-4516983D01*
X4948885Y-4390339D01*
X4946599Y-4386783D01*
X4945938Y-4382617D01*
X4947056Y-4378553D01*
X4949698Y-4375251D01*
X4953457Y-4373321D01*
X4958588Y-4373270D01*
X4976418Y-4374184D01*
X4994249Y-4373270D01*
X5011877Y-4370476D01*
X5029098Y-4365853D01*
X5045760Y-4359452D01*
X5061661Y-4351375D01*
X5076647Y-4341622D01*
X5090515Y-4330395D01*
X5103114Y-4317796D01*
X5114340Y-4303928D01*
X5124094Y-4288942D01*
X5132171Y-4273042D01*
X5138572Y-4256379D01*
X5143195Y-4239158D01*
X5145989Y-4221530D01*
X5146903Y-4203700D01*
X5145989Y-4185869D01*
X5143195Y-4168241D01*
X5138572Y-4151020D01*
X5132171Y-4134358D01*
X5124094Y-4118457D01*
X5114340Y-4103471D01*
X5103114Y-4089603D01*
X5090515Y-4077004D01*
X5076647Y-4065778D01*
X5061661Y-4056024D01*
X5045760Y-4047947D01*
X5029098Y-4041546D01*
X5007914Y-4035806D01*
X5005324Y-4033926D01*
X4628692Y-3657295D01*
X4616704Y-3646576D01*
X4603851Y-3637483D01*
X4590084Y-3629863D01*
X4575505Y-3623818D01*
X4560366Y-3619449D01*
X4544872Y-3616807D01*
X4528820Y-3615944D01*
X4354931Y-3615944D01*
X4351020Y-3615131D01*
X4347718Y-3612946D01*
X4345533Y-3609644D01*
X4344771Y-3605784D01*
X4344771Y-3591356D01*
X4345482Y-3587597D01*
X4347514Y-3584397D01*
X4350613Y-3582162D01*
X4354271Y-3581196D01*
X4358081Y-3581704D01*
X4360316Y-3582415D01*
X4376572Y-3585718D01*
X4393133Y-3587140D01*
X4409744Y-3586683D01*
X4426204Y-3584295D01*
X4432858Y-3582517D01*
X4435449Y-3582212D01*
X4864455Y-3582212D01*
X4867351Y-3582619D01*
X4869992Y-3583838D01*
X4878476Y-3589375D01*
X4894376Y-3597452D01*
X4911039Y-3603853D01*
X4928260Y-3608476D01*
X4945888Y-3611270D01*
X4963718Y-3612184D01*
X4981549Y-3611270D01*
X4999177Y-3608476D01*
X5016398Y-3603853D01*
X5033060Y-3597452D01*
X5048961Y-3589375D01*
X5063947Y-3579622D01*
X5077815Y-3568395D01*
X5090414Y-3555796D01*
X5101640Y-3541928D01*
X5111394Y-3526942D01*
X5119471Y-3511042D01*
X5125872Y-3494379D01*
X5130495Y-3477158D01*
X5133289Y-3459530D01*
X5134203Y-3441700D01*
X5133289Y-3423869D01*
X5130495Y-3406241D01*
X5125872Y-3389020D01*
X5119471Y-3372358D01*
X5111394Y-3356457D01*
X5101640Y-3341471D01*
X5090414Y-3327603D01*
X5077815Y-3315004D01*
X5063947Y-3303778D01*
X5048961Y-3294024D01*
X5033060Y-3285947D01*
X5016398Y-3279546D01*
X4999177Y-3274923D01*
X4981549Y-3272129D01*
X4963718Y-3271215D01*
X4945888Y-3272129D01*
X4928260Y-3274923D01*
X4911039Y-3279546D01*
X4894376Y-3285947D01*
X4878476Y-3294024D01*
X4869992Y-3299561D01*
X4867351Y-3300780D01*
X4864455Y-3301187D01*
X4640275Y-3301187D01*
X4636414Y-3300425D01*
X4633163Y-3298342D01*
X4630978Y-3295142D01*
X4630115Y-3291332D01*
X4630724Y-3287471D01*
X4632756Y-3284169D01*
X4640224Y-3276041D01*
X4649978Y-3262629D01*
X4658156Y-3248152D01*
X4664608Y-3232861D01*
X4669282Y-3216910D01*
X4672126Y-3200552D01*
X4673092Y-3183991D01*
X4672126Y-3167380D01*
X4669282Y-3151022D01*
X4664608Y-3135071D01*
X4658156Y-3119780D01*
X4649978Y-3105302D01*
X4640224Y-3091891D01*
X4628997Y-3079648D01*
X4616399Y-3068726D01*
X4602683Y-3059379D01*
X4588002Y-3051606D01*
X4572558Y-3045612D01*
X4556455Y-3041396D01*
X4540046Y-3039008D01*
X4523435Y-3038551D01*
X4506874Y-3039973D01*
X4490567Y-3043275D01*
X4488535Y-3043478D01*
X4386376Y-3043478D01*
X4370374Y-3044342D01*
X4354830Y-3046984D01*
X4339691Y-3051352D01*
X4325162Y-3057398D01*
X4311345Y-3065018D01*
X4298492Y-3074111D01*
X4286554Y-3084830D01*
X4105097Y-3266236D01*
X4094429Y-3278225D01*
X4085285Y-3291078D01*
X4077665Y-3304844D01*
X4071670Y-3319424D01*
X4067301Y-3334562D01*
X4064660Y-3350056D01*
X4063746Y-3366109D01*
X4063746Y-3605784D01*
X4062984Y-3609644D01*
X4060799Y-3612946D01*
X4057497Y-3615131D01*
X4053586Y-3615944D01*
X2447544Y-3615944D01*
X2431542Y-3616807D01*
X2415997Y-3619449D01*
X2400858Y-3623818D01*
X2386330Y-3629863D01*
X2372512Y-3637483D01*
X2359660Y-3646576D01*
X2347722Y-3657295D01*
X2034438Y-3970528D01*
X2023770Y-3982516D01*
X2014626Y-3995369D01*
X2007006Y-4009136D01*
X2001520Y-4022445D01*
X1998929Y-4026103D01*
X1994966Y-4028287D01*
X1990496Y-4028541D01*
X1986330Y-4026865D01*
X1977694Y-4020870D01*
X1961286Y-4011777D01*
X1944014Y-4004360D01*
X1926082Y-3998722D01*
X1907692Y-3994962D01*
X1888998Y-3993032D01*
X1870202Y-3993032D01*
X1851507Y-3994962D01*
X1833118Y-3998722D01*
X1827987Y-3999331D01*
X1823770Y-3997706D01*
X1820672Y-3994505D01*
X1819249Y-3990289D01*
X1819808Y-3985818D01*
X1822196Y-3982059D01*
X2296617Y-3507638D01*
X2299766Y-3505504D01*
X2303526Y-3504692D01*
X2307336Y-3505301D01*
X2310587Y-3507282D01*
X2312924Y-3510330D01*
X2316835Y-3518357D01*
X2325827Y-3532327D01*
X2336342Y-3545179D01*
X2348230Y-3556762D01*
X2361387Y-3566922D01*
X2375611Y-3575507D01*
X2390749Y-3582365D01*
X2406548Y-3587496D01*
X2422804Y-3590798D01*
X2439365Y-3592220D01*
X2455976Y-3591763D01*
X2472436Y-3589375D01*
X2479090Y-3587648D01*
X2481681Y-3587292D01*
X3729278Y-3587292D01*
X3745331Y-3586429D01*
X3760825Y-3583787D01*
X3775964Y-3579418D01*
X3790543Y-3573373D01*
X3804310Y-3565753D01*
X3817162Y-3556660D01*
X3829151Y-3545941D01*
X4023004Y-3352088D01*
X4033672Y-3340150D01*
X4042816Y-3327298D01*
X4050436Y-3313480D01*
X4056430Y-3298951D01*
X4060799Y-3283813D01*
X4063441Y-3268268D01*
X4064355Y-3252266D01*
X4064355Y-2786532D01*
X4063441Y-2770530D01*
X4060799Y-2754985D01*
X4056430Y-2739847D01*
X4050436Y-2725318D01*
X4042816Y-2711500D01*
X4033672Y-2698648D01*
X4023004Y-2686710D01*
X3916832Y-2580538D01*
X3904894Y-2569870D01*
X3892042Y-2560726D01*
X3878224Y-2553106D01*
X3863695Y-2547112D01*
X3855008Y-2544572D01*
X3851605Y-2542844D01*
X3849065Y-2540000D01*
X3847795Y-2536342D01*
X3847947Y-2532532D01*
X3849471Y-2529027D01*
X3853129Y-2523794D01*
X3862222Y-2507386D01*
X3869639Y-2490114D01*
X3875278Y-2472182D01*
X3879037Y-2453792D01*
X3880967Y-2435098D01*
X3880967Y-2416302D01*
X3879037Y-2397607D01*
X3875278Y-2379218D01*
X3869639Y-2361285D01*
X3862222Y-2344013D01*
X3853129Y-2327605D01*
X3842359Y-2312162D01*
X3836517Y-2305304D01*
X3834688Y-2302205D01*
X3834079Y-2298700D01*
X3834688Y-2295194D01*
X3836517Y-2292096D01*
X3842359Y-2285238D01*
X3853129Y-2269794D01*
X3862222Y-2253386D01*
X3869639Y-2236114D01*
X3874515Y-2220569D01*
X3744569Y-2220569D01*
X3744569Y-2233930D01*
X3743604Y-2238197D01*
X3741013Y-2241651D01*
X3737203Y-2243683D01*
X3732834Y-2243988D01*
X3714445Y-2241143D01*
X3695700Y-2240229D01*
X3676954Y-2241143D01*
X3658565Y-2243988D01*
X3654196Y-2243683D01*
X3650386Y-2241651D01*
X3647795Y-2238197D01*
X3646830Y-2233930D01*
X3646830Y-2220569D01*
X3516884Y-2220569D01*
X3521760Y-2236114D01*
X3529177Y-2253386D01*
X3538423Y-2270099D01*
X3539693Y-2274112D01*
X3539185Y-2278278D01*
X3537051Y-2281885D01*
X3533648Y-2284323D01*
X3529533Y-2285187D01*
X3300171Y-2285187D01*
X3296259Y-2284425D01*
X3293008Y-2282240D01*
X3277057Y-2266289D01*
X3275380Y-2264105D01*
X3273044Y-2259939D01*
X3263290Y-2246477D01*
X3252063Y-2234234D01*
X3239465Y-2223363D01*
X3225749Y-2213965D01*
X3211068Y-2206244D01*
X3195624Y-2200198D01*
X3179521Y-2195982D01*
X3163112Y-2193594D01*
X3146501Y-2193137D01*
X3129940Y-2194560D01*
X3113633Y-2197862D01*
X3097834Y-2202992D01*
X3082747Y-2209901D01*
X3068523Y-2218486D01*
X3055366Y-2228646D01*
X3043428Y-2240178D01*
X3032912Y-2253081D01*
X3023971Y-2267051D01*
X3016605Y-2281936D01*
X3011017Y-2297582D01*
X3007258Y-2313787D01*
X3005378Y-2330246D01*
X3005378Y-2346909D01*
X3007258Y-2363368D01*
X3011017Y-2379573D01*
X3016605Y-2395220D01*
X3023971Y-2410104D01*
X3032912Y-2424074D01*
X3043428Y-2436977D01*
X3055366Y-2448509D01*
X3068523Y-2458669D01*
X3076295Y-2463393D01*
X3078226Y-2464917D01*
X3138220Y-2524861D01*
X3150158Y-2535529D01*
X3163011Y-2544673D01*
X3176828Y-2552293D01*
X3191357Y-2558288D01*
X3206496Y-2562656D01*
X3222040Y-2565298D01*
X3238042Y-2566212D01*
X3529533Y-2566212D01*
X3533648Y-2567076D01*
X3537051Y-2569514D01*
X3539185Y-2573121D01*
X3539693Y-2577287D01*
X3538423Y-2581300D01*
X3529177Y-2598013D01*
X3521760Y-2615285D01*
X3516122Y-2633218D01*
X3512362Y-2651607D01*
X3510432Y-2670302D01*
X3510432Y-2689098D01*
X3512362Y-2707792D01*
X3516122Y-2726182D01*
X3521760Y-2744114D01*
X3529177Y-2761386D01*
X3535273Y-2772410D01*
X3536492Y-2776372D01*
X3536086Y-2780436D01*
X3534054Y-2784043D01*
X3530955Y-2787548D01*
X3523691Y-2798470D01*
X3517849Y-2810256D01*
X3513632Y-2822702D01*
X3511092Y-2835605D01*
X3510178Y-2849016D01*
X3510178Y-3018383D01*
X3511092Y-3031794D01*
X3513632Y-3044698D01*
X3517849Y-3057144D01*
X3523691Y-3068929D01*
X3530955Y-3079851D01*
X3533648Y-3082899D01*
X3535578Y-3086252D01*
X3536137Y-3090062D01*
X3535273Y-3093821D01*
X3533038Y-3096971D01*
X3529787Y-3099054D01*
X3526028Y-3099765D01*
X2556256Y-3099765D01*
X2552141Y-3098901D01*
X2548737Y-3096463D01*
X2546604Y-3092907D01*
X2546096Y-3088741D01*
X2547315Y-3084779D01*
X2550007Y-3081578D01*
X2559202Y-3074466D01*
X2572867Y-3061512D01*
X2585059Y-3047238D01*
X2595829Y-3031794D01*
X2604922Y-3015386D01*
X2612339Y-2998114D01*
X2617216Y-2982569D01*
X2487269Y-2982569D01*
X2487269Y-3089605D01*
X2486456Y-3093516D01*
X2484272Y-3096818D01*
X2480970Y-3099003D01*
X2477109Y-3099765D01*
X2399690Y-3099765D01*
X2395829Y-3099003D01*
X2392527Y-3096818D01*
X2390343Y-3093516D01*
X2389530Y-3089605D01*
X2389530Y-2982569D01*
X2259584Y-2982569D01*
X2264460Y-2998114D01*
X2271877Y-3015386D01*
X2280970Y-3031794D01*
X2291740Y-3047238D01*
X2303932Y-3061512D01*
X2317597Y-3074466D01*
X2332634Y-3086049D01*
X2335479Y-3088690D01*
X2337104Y-3092196D01*
X2337308Y-3096107D01*
X2336038Y-3099765D01*
X2333498Y-3102660D01*
X2330043Y-3104438D01*
X2318867Y-3107690D01*
X2304338Y-3113684D01*
X2290521Y-3121304D01*
X2277668Y-3130448D01*
X2265730Y-3141116D01*
X1533144Y-3873703D01*
X1529435Y-3876090D01*
X1525066Y-3876649D01*
X1520850Y-3875328D01*
X1517599Y-3872331D01*
X1515922Y-3868267D01*
X1514957Y-3862527D01*
X1510233Y-3846576D01*
X1503781Y-3831285D01*
X1495602Y-3816807D01*
X1485849Y-3803396D01*
X1474622Y-3791153D01*
X1462074Y-3780231D01*
X1448358Y-3770884D01*
X1433677Y-3763111D01*
X1418183Y-3757117D01*
X1402130Y-3752900D01*
X1385671Y-3750513D01*
X1369060Y-3750056D01*
X1352499Y-3751478D01*
X1336243Y-3754780D01*
X1334211Y-3754983D01*
X1021181Y-3754983D01*
X1017269Y-3754170D01*
X1013968Y-3751986D01*
X1011783Y-3748684D01*
X1011021Y-3744823D01*
X1011021Y-3719169D01*
X874369Y-3719169D01*
X874369Y-3744823D01*
X873556Y-3748684D01*
X871372Y-3751986D01*
X868070Y-3754170D01*
X864209Y-3754983D01*
X786790Y-3754983D01*
X782929Y-3754170D01*
X779627Y-3751986D01*
X777443Y-3748684D01*
X776630Y-3744823D01*
X776630Y-3719169D01*
X763066Y-3719169D01*
X758698Y-3718153D01*
X755192Y-3715410D01*
X753160Y-3711397D01*
X753110Y-3706926D01*
X754837Y-3698392D01*
X756767Y-3679698D01*
X756767Y-3660901D01*
X754837Y-3642207D01*
X753110Y-3633673D01*
X753160Y-3629202D01*
X755192Y-3625189D01*
X758698Y-3622446D01*
X763066Y-3621430D01*
X776630Y-3621430D01*
X776630Y-3608070D01*
X777595Y-3603802D01*
X780186Y-3600348D01*
X783996Y-3598316D01*
X788365Y-3598011D01*
X806754Y-3600856D01*
X825500Y-3601770D01*
X844245Y-3600856D01*
X862634Y-3598011D01*
X867003Y-3598316D01*
X870813Y-3600348D01*
X873404Y-3603802D01*
X874369Y-3608070D01*
X874369Y-3621430D01*
X1011021Y-3621430D01*
X1011021Y-3585616D01*
X1010107Y-3572205D01*
X1007567Y-3559301D01*
X1003350Y-3546856D01*
X997508Y-3535070D01*
X990244Y-3524148D01*
X987145Y-3520643D01*
X985113Y-3517036D01*
X984707Y-3512972D01*
X985926Y-3509010D01*
X992022Y-3497986D01*
X999439Y-3480714D01*
X1005078Y-3462782D01*
X1008837Y-3444392D01*
X1010767Y-3425698D01*
X1010767Y-3406901D01*
X1008837Y-3388207D01*
X1005078Y-3369818D01*
X999439Y-3351885D01*
X992022Y-3334613D01*
X982929Y-3318205D01*
X972159Y-3302762D01*
X966317Y-3295904D01*
X964488Y-3292805D01*
X963879Y-3289300D01*
X964488Y-3285794D01*
X966317Y-3282696D01*
X972159Y-3275838D01*
X982929Y-3260394D01*
X992022Y-3243986D01*
X999439Y-3226714D01*
X1005078Y-3208782D01*
X1008837Y-3190392D01*
X1010767Y-3171698D01*
X1010767Y-3152902D01*
X1008837Y-3134207D01*
X1005078Y-3115818D01*
X999439Y-3097885D01*
X992022Y-3080613D01*
X982929Y-3064205D01*
X972159Y-3048762D01*
X966317Y-3041904D01*
X964488Y-3038805D01*
X963879Y-3035300D01*
X964488Y-3031794D01*
X966317Y-3028696D01*
X972159Y-3021838D01*
X982929Y-3006394D01*
X992022Y-2989986D01*
X999439Y-2972714D01*
X1005078Y-2954782D01*
X1008837Y-2936392D01*
X1010767Y-2917698D01*
X1010767Y-2898902D01*
X1008837Y-2880207D01*
X1005078Y-2861818D01*
X999439Y-2843885D01*
X992022Y-2826613D01*
X982776Y-2809900D01*
X981506Y-2805887D01*
X982014Y-2801721D01*
X984148Y-2798114D01*
X987552Y-2795676D01*
X991666Y-2794812D01*
X1585112Y-2794812D01*
X1601165Y-2793898D01*
X1616659Y-2791256D01*
X1631797Y-2786888D01*
X1646377Y-2780893D01*
X1660143Y-2773273D01*
X1672996Y-2764129D01*
X1684985Y-2753461D01*
X1869236Y-2569159D01*
X1872538Y-2566974D01*
X1876450Y-2566212D01*
X2272233Y-2566212D01*
X2276348Y-2567076D01*
X2279751Y-2569514D01*
X2281885Y-2573121D01*
X2282393Y-2577287D01*
X2281123Y-2581300D01*
X2271877Y-2598013D01*
X2264460Y-2615285D01*
X2258822Y-2633218D01*
X2255062Y-2651607D01*
X2253132Y-2670302D01*
X2253132Y-2689098D01*
X2255062Y-2707792D01*
X2258822Y-2726182D01*
X2264460Y-2744114D01*
X2271877Y-2761386D01*
X2280970Y-2777794D01*
X2291740Y-2793238D01*
X2297582Y-2800096D01*
X2299411Y-2803194D01*
X2300020Y-2806700D01*
X2299411Y-2810205D01*
X2297582Y-2813304D01*
X2291740Y-2820162D01*
X2280970Y-2835605D01*
X2271877Y-2852013D01*
X2264460Y-2869285D01*
X2259584Y-2884830D01*
X2389530Y-2884830D01*
X2389530Y-2871470D01*
X2390495Y-2867202D01*
X2393086Y-2863748D01*
X2396896Y-2861716D01*
X2401265Y-2861411D01*
X2419654Y-2864256D01*
X2438400Y-2865170D01*
X2457145Y-2864256D01*
X2475534Y-2861411D01*
X2479903Y-2861716D01*
X2483713Y-2863748D01*
X2486304Y-2867202D01*
X2487269Y-2871470D01*
X2487269Y-2884830D01*
X2617216Y-2884830D01*
X2612339Y-2869285D01*
X2604922Y-2852013D01*
X2595829Y-2835605D01*
X2585059Y-2820162D01*
X2579217Y-2813304D01*
X2577388Y-2810205D01*
X2576779Y-2806700D01*
X2577388Y-2803194D01*
X2579217Y-2800096D01*
X2585059Y-2793238D01*
X2595829Y-2777794D01*
X2604922Y-2761386D01*
X2612339Y-2744114D01*
X2617978Y-2726182D01*
X2621737Y-2707792D01*
X2623667Y-2689098D01*
X2623667Y-2670302D01*
X2621737Y-2651607D01*
X2617978Y-2633218D01*
X2612339Y-2615285D01*
X2604922Y-2598013D01*
X2595829Y-2581605D01*
X2585059Y-2566162D01*
X2579217Y-2559304D01*
X2577388Y-2556205D01*
X2576779Y-2552700D01*
X2577388Y-2549194D01*
X2579217Y-2546096D01*
X2585059Y-2539238D01*
X2595829Y-2523794D01*
X2604922Y-2507386D01*
X2612339Y-2490114D01*
X2617978Y-2472182D01*
X2621737Y-2453792D01*
X2623667Y-2435098D01*
X2623667Y-2416302D01*
X2621737Y-2397607D01*
X2617978Y-2379218D01*
X2612339Y-2361285D01*
X2604922Y-2344013D01*
X2595829Y-2327605D01*
X2585059Y-2312162D01*
X2579217Y-2305304D01*
X2577388Y-2302205D01*
X2576779Y-2298700D01*
X2577388Y-2295194D01*
X2579217Y-2292096D01*
X2585059Y-2285238D01*
X2595829Y-2269794D01*
X2604922Y-2253386D01*
X2612339Y-2236114D01*
X2617978Y-2218182D01*
X2621737Y-2199792D01*
X2623667Y-2181098D01*
X2623667Y-2162302D01*
X2621737Y-2143607D01*
X2617978Y-2125218D01*
X2612339Y-2107285D01*
X2604922Y-2090013D01*
X2595676Y-2073300D01*
X2594406Y-2069287D01*
X2594914Y-2065121D01*
X2597048Y-2061514D01*
X2600452Y-2059076D01*
X2604566Y-2058212D01*
X2890774Y-2058212D01*
X2906776Y-2057298D01*
X2922320Y-2054656D01*
X2937459Y-2050288D01*
X2951988Y-2044293D01*
X2965805Y-2036673D01*
X2978658Y-2027529D01*
X2990596Y-2016861D01*
X3425494Y-1581962D01*
X3428746Y-1579778D01*
X3432657Y-1579016D01*
X3515055Y-1579016D01*
X3518966Y-1579778D01*
X3522268Y-1582013D01*
X3524453Y-1585366D01*
X3525215Y-1589278D01*
X3524351Y-1593189D01*
X3521760Y-1599285D01*
X3516122Y-1617218D01*
X3512362Y-1635607D01*
X3510432Y-1654302D01*
X3510432Y-1673098D01*
X3512362Y-1691792D01*
X3516122Y-1710182D01*
X3521760Y-1728114D01*
X3529177Y-1745386D01*
X3538270Y-1761794D01*
X3549040Y-1777238D01*
X3554882Y-1784096D01*
X3556711Y-1787194D01*
X3557320Y-1790700D01*
X3556711Y-1794205D01*
X3554882Y-1797304D01*
X3549040Y-1804162D01*
X3538270Y-1819605D01*
X3529177Y-1836013D01*
X3521760Y-1853285D01*
X3516122Y-1871218D01*
X3512362Y-1889607D01*
X3510432Y-1908302D01*
X3510432Y-1927098D01*
X3512362Y-1945792D01*
X3516122Y-1964182D01*
X3521760Y-1982114D01*
X3529177Y-1999386D01*
X3538270Y-2015794D01*
X3549040Y-2031238D01*
X3554882Y-2038096D01*
X3556711Y-2041194D01*
X3557320Y-2044700D01*
X3556711Y-2048205D01*
X3554882Y-2051304D01*
X3549040Y-2058162D01*
X3538270Y-2073605D01*
X3529177Y-2090013D01*
X3521760Y-2107285D01*
X3516884Y-2122830D01*
X3646830Y-2122830D01*
X3646830Y-2109470D01*
X3647795Y-2105202D01*
X3650386Y-2101748D01*
X3654196Y-2099716D01*
X3658565Y-2099411D01*
X3676954Y-2102256D01*
X3695700Y-2103170D01*
X3714445Y-2102256D01*
X3732834Y-2099411D01*
X3737203Y-2099716D01*
X3741013Y-2101748D01*
X3743604Y-2105202D01*
X3744569Y-2109470D01*
X3744569Y-2122830D01*
X3874515Y-2122830D01*
X3869639Y-2107285D01*
X3862222Y-2090013D01*
X3852976Y-2073300D01*
X3851706Y-2069287D01*
X3852214Y-2065121D01*
X3854348Y-2061514D01*
X3857751Y-2059076D01*
X3861866Y-2058212D01*
X3972458Y-2058212D01*
X3976370Y-2058974D01*
X3979621Y-2061159D01*
X4032351Y-2113889D01*
X4033723Y-2115566D01*
X4041241Y-2127300D01*
X4051757Y-2140153D01*
X4063644Y-2151735D01*
X4076801Y-2161895D01*
X4091025Y-2170480D01*
X4106164Y-2177338D01*
X4121962Y-2182469D01*
X4138218Y-2185771D01*
X4154779Y-2187194D01*
X4171391Y-2186736D01*
X4187850Y-2184349D01*
X4203903Y-2180132D01*
X4219397Y-2174138D01*
X4234078Y-2166366D01*
X4247794Y-2157018D01*
X4260342Y-2146096D01*
X4271568Y-2133854D01*
X4281322Y-2120442D01*
X4289501Y-2105964D01*
X4295952Y-2090674D01*
X4300677Y-2074722D01*
X4303471Y-2058365D01*
X4304436Y-2041804D01*
X4303471Y-2025192D01*
X4300677Y-2008835D01*
X4295952Y-1992884D01*
X4289501Y-1977593D01*
X4281322Y-1963115D01*
X4271568Y-1949704D01*
X4260342Y-1937461D01*
X4247794Y-1926539D01*
X4230827Y-1914956D01*
X4134408Y-1818538D01*
X4122470Y-1807870D01*
X4109618Y-1798726D01*
X4095800Y-1791106D01*
X4081272Y-1785112D01*
X4066133Y-1780743D01*
X4050588Y-1778101D01*
X4034586Y-1777187D01*
X3861866Y-1777187D01*
X3857751Y-1776323D01*
X3854348Y-1773885D01*
X3852214Y-1770278D01*
X3851706Y-1766112D01*
X3852976Y-1762099D01*
X3862222Y-1745386D01*
X3869639Y-1728114D01*
X3875278Y-1710182D01*
X3879037Y-1691792D01*
X3880967Y-1673098D01*
X3880967Y-1654302D01*
X3879037Y-1635607D01*
X3875278Y-1617218D01*
X3869639Y-1599285D01*
X3867048Y-1593189D01*
X3866184Y-1589278D01*
X3866946Y-1585366D01*
X3869131Y-1582013D01*
X3872433Y-1579778D01*
X3876344Y-1579016D01*
X5726023Y-1579016D01*
X5742025Y-1578102D01*
X5757570Y-1575460D01*
X5772708Y-1571091D01*
X5787237Y-1565097D01*
X5801055Y-1557477D01*
X5813907Y-1548333D01*
X5825845Y-1537665D01*
X6012637Y-1350873D01*
X6015228Y-1348994D01*
X6036360Y-1343253D01*
X6053023Y-1336852D01*
X6068923Y-1328775D01*
X6083909Y-1319022D01*
X6097778Y-1307795D01*
X6110376Y-1295196D01*
X6121603Y-1281328D01*
X6131306Y-1266342D01*
X6139434Y-1250442D01*
X6145834Y-1233779D01*
X6150457Y-1216558D01*
X6153251Y-1198930D01*
X6154166Y-1181100D01*
X6153251Y-1163269D01*
X6150457Y-1145641D01*
X6145834Y-1128420D01*
X6139434Y-1111758D01*
X6131306Y-1095857D01*
X6121603Y-1080871D01*
X6110376Y-1067003D01*
X6097778Y-1054404D01*
X6083909Y-1043178D01*
X6068923Y-1033424D01*
X6053023Y-1025347D01*
X6036360Y-1018946D01*
X6019139Y-1014323D01*
X6001512Y-1011529D01*
X5983681Y-1010615D01*
X5965850Y-1011529D01*
X5948222Y-1014323D01*
X5931001Y-1018946D01*
X5914339Y-1025347D01*
X5898438Y-1033424D01*
X5883452Y-1043178D01*
X5869584Y-1054404D01*
X5856986Y-1067003D01*
X5845759Y-1080871D01*
X5836005Y-1095857D01*
X5827928Y-1111758D01*
X5821527Y-1128420D01*
X5815787Y-1149604D01*
X5813907Y-1152194D01*
X5671058Y-1295044D01*
X5667806Y-1297228D01*
X5663895Y-1297990D01*
X5109464Y-1297990D01*
X5105704Y-1297279D01*
X5102504Y-1295247D01*
X5100269Y-1292199D01*
X5099304Y-1288542D01*
X5099761Y-1284782D01*
X5101640Y-1281328D01*
X5111394Y-1266342D01*
X5119471Y-1250442D01*
X5125872Y-1233779D01*
X5130495Y-1216558D01*
X5133289Y-1198930D01*
X5134203Y-1181100D01*
X5133289Y-1163269D01*
X5130495Y-1145641D01*
X5125872Y-1128420D01*
X5119471Y-1111758D01*
X5111394Y-1095857D01*
X5101640Y-1080871D01*
X5090414Y-1067003D01*
X5077815Y-1054404D01*
X5063947Y-1043178D01*
X5048961Y-1033424D01*
X5033060Y-1025347D01*
X5016398Y-1018946D01*
X4999177Y-1014323D01*
X4981549Y-1011529D01*
X4963718Y-1010615D01*
X4945888Y-1011529D01*
X4928260Y-1014323D01*
X4911039Y-1018946D01*
X4894376Y-1025347D01*
X4878476Y-1033424D01*
X4863490Y-1043178D01*
X4849622Y-1054404D01*
X4837023Y-1067003D01*
X4825796Y-1080871D01*
X4816094Y-1095857D01*
X4807966Y-1111758D01*
X4801565Y-1128420D01*
X4796942Y-1145641D01*
X4794148Y-1163269D01*
X4793234Y-1181100D01*
X4794148Y-1198930D01*
X4796942Y-1216558D01*
X4801565Y-1233779D01*
X4807966Y-1250442D01*
X4816094Y-1266342D01*
X4825898Y-1281430D01*
X4827676Y-1284782D01*
X4828133Y-1288542D01*
X4827168Y-1292199D01*
X4824933Y-1295247D01*
X4821732Y-1297279D01*
X4817973Y-1297990D01*
X3472179Y-1297990D01*
X3468268Y-1297228D01*
X3464966Y-1295044D01*
X3462782Y-1291742D01*
X3462020Y-1287830D01*
X3462782Y-1283970D01*
X3464966Y-1280668D01*
X3655618Y-1090015D01*
X3666286Y-1078077D01*
X3675430Y-1065225D01*
X3683050Y-1051407D01*
X3689045Y-1036878D01*
X3693414Y-1021740D01*
X3696055Y-1006195D01*
X3696970Y-990193D01*
X3696970Y-240741D01*
X3696055Y-224688D01*
X3693414Y-209194D01*
X3689045Y-194056D01*
X3683050Y-179476D01*
X3675430Y-165709D01*
X3666286Y-152857D01*
X3655618Y-140868D01*
X3558692Y-43942D01*
X3555898Y-40386D01*
X3554933Y-36423D01*
X3555593Y-32461D01*
X3557778Y-29006D01*
X3561130Y-26720D01*
X3565093Y-25908D01*
X6326632Y-25908D01*
X6330543Y-26670D01*
X6333794Y-28905D01*
X6336030Y-32156D01*
X6336792Y-36068D01*
X6336792Y-6009132D01*
X6336030Y-6013043D01*
X6333794Y-6016294D01*
X6330543Y-6018530D01*
X6326632Y-6019292D01*
G37*

%LPC*%
G36*
X4976418Y-5898184D02*
G01*
X4994249Y-5897270D01*
X5011877Y-5894476D01*
X5029098Y-5889853D01*
X5045760Y-5883452D01*
X5061661Y-5875375D01*
X5076647Y-5865622D01*
X5090515Y-5854395D01*
X5103114Y-5841796D01*
X5114340Y-5827928D01*
X5124094Y-5812942D01*
X5132171Y-5797042D01*
X5138572Y-5780379D01*
X5143195Y-5763158D01*
X5145989Y-5745530D01*
X5146903Y-5727700D01*
X5145989Y-5709869D01*
X5143195Y-5692241D01*
X5138572Y-5675020D01*
X5132171Y-5658358D01*
X5124094Y-5642457D01*
X5114340Y-5627471D01*
X5103114Y-5613603D01*
X5090515Y-5601004D01*
X5076647Y-5589778D01*
X5061661Y-5580024D01*
X5045760Y-5571947D01*
X5029098Y-5565546D01*
X5011877Y-5560923D01*
X4994249Y-5558129D01*
X4976418Y-5557215D01*
X4958588Y-5558129D01*
X4940960Y-5560923D01*
X4923739Y-5565546D01*
X4907076Y-5571947D01*
X4891176Y-5580024D01*
X4876190Y-5589778D01*
X4862322Y-5601004D01*
X4849723Y-5613603D01*
X4838496Y-5627471D01*
X4828794Y-5642457D01*
X4820666Y-5658358D01*
X4814265Y-5675020D01*
X4809642Y-5692241D01*
X4806848Y-5709869D01*
X4805934Y-5727700D01*
X4806848Y-5745530D01*
X4809642Y-5763158D01*
X4814265Y-5780379D01*
X4820666Y-5797042D01*
X4828794Y-5812942D01*
X4838496Y-5827928D01*
X4849723Y-5841796D01*
X4862322Y-5854395D01*
X4876190Y-5865622D01*
X4891176Y-5875375D01*
X4907076Y-5883452D01*
X4923739Y-5889853D01*
X4940960Y-5894476D01*
X4958588Y-5897270D01*
G37*
G36*
X5955030Y-5892901D02*
G01*
X5955030Y-5769051D01*
X5831179Y-5769051D01*
X5834227Y-5780379D01*
X5840628Y-5797042D01*
X5848705Y-5812942D01*
X5858459Y-5827928D01*
X5869686Y-5841796D01*
X5882284Y-5854395D01*
X5896152Y-5865622D01*
X5911138Y-5875375D01*
X5927039Y-5883452D01*
X5943701Y-5889853D01*
G37*
G36*
X6037732Y-5892901D02*
G01*
X6049060Y-5889853D01*
X6065723Y-5883452D01*
X6081623Y-5875375D01*
X6096609Y-5865622D01*
X6110478Y-5854395D01*
X6123076Y-5841796D01*
X6134303Y-5827928D01*
X6144006Y-5812942D01*
X6152134Y-5797042D01*
X6158534Y-5780379D01*
X6161582Y-5769051D01*
X6037732Y-5769051D01*
G37*
G36*
X5831179Y-5686348D02*
G01*
X5955030Y-5686348D01*
X5955030Y-5562498D01*
X5943701Y-5565546D01*
X5927039Y-5571947D01*
X5911138Y-5580024D01*
X5896152Y-5589778D01*
X5882284Y-5601004D01*
X5869686Y-5613603D01*
X5858459Y-5627471D01*
X5848705Y-5642457D01*
X5840628Y-5658358D01*
X5834227Y-5675020D01*
G37*
G36*
X6037732Y-5686348D02*
G01*
X6161582Y-5686348D01*
X6158534Y-5675020D01*
X6152134Y-5658358D01*
X6144006Y-5642457D01*
X6134303Y-5627471D01*
X6123076Y-5613603D01*
X6110478Y-5601004D01*
X6096609Y-5589778D01*
X6081623Y-5580024D01*
X6065723Y-5571947D01*
X6049060Y-5565546D01*
X6037732Y-5562498D01*
G37*
G36*
X6037732Y-5105501D02*
G01*
X6049060Y-5102453D01*
X6065723Y-5096052D01*
X6081623Y-5087975D01*
X6096609Y-5078222D01*
X6110478Y-5066995D01*
X6123076Y-5054396D01*
X6134303Y-5040528D01*
X6144006Y-5025542D01*
X6152134Y-5009642D01*
X6158534Y-4992979D01*
X6161582Y-4981651D01*
X6037732Y-4981651D01*
G37*
G36*
X5955030Y-5105501D02*
G01*
X5955030Y-4981651D01*
X5831179Y-4981651D01*
X5834227Y-4992979D01*
X5840628Y-5009642D01*
X5848705Y-5025542D01*
X5858459Y-5040528D01*
X5869686Y-5054396D01*
X5882284Y-5066995D01*
X5896152Y-5078222D01*
X5911138Y-5087975D01*
X5927039Y-5096052D01*
X5943701Y-5102453D01*
G37*
G36*
X6037732Y-4898948D02*
G01*
X6161582Y-4898948D01*
X6158534Y-4887620D01*
X6152134Y-4870958D01*
X6144006Y-4855057D01*
X6134303Y-4840071D01*
X6123076Y-4826203D01*
X6110478Y-4813604D01*
X6096609Y-4802378D01*
X6081623Y-4792624D01*
X6065723Y-4784547D01*
X6049060Y-4778146D01*
X6037732Y-4775098D01*
G37*
G36*
X5831179Y-4898948D02*
G01*
X5955030Y-4898948D01*
X5955030Y-4775098D01*
X5943701Y-4778146D01*
X5927039Y-4784547D01*
X5911138Y-4792624D01*
X5896152Y-4802378D01*
X5882284Y-4813604D01*
X5869686Y-4826203D01*
X5858459Y-4840071D01*
X5848705Y-4855057D01*
X5840628Y-4870958D01*
X5834227Y-4887620D01*
G37*
G36*
X6037732Y-4368901D02*
G01*
X6049060Y-4365853D01*
X6065723Y-4359452D01*
X6081623Y-4351375D01*
X6096609Y-4341622D01*
X6110478Y-4330395D01*
X6123076Y-4317796D01*
X6134303Y-4303928D01*
X6144006Y-4288942D01*
X6152134Y-4273042D01*
X6158534Y-4256379D01*
X6161582Y-4245051D01*
X6037732Y-4245051D01*
G37*
G36*
X5955030Y-4368901D02*
G01*
X5955030Y-4245051D01*
X5831179Y-4245051D01*
X5834227Y-4256379D01*
X5840628Y-4273042D01*
X5848705Y-4288942D01*
X5858459Y-4303928D01*
X5869686Y-4317796D01*
X5882284Y-4330395D01*
X5896152Y-4341622D01*
X5911138Y-4351375D01*
X5927039Y-4359452D01*
X5943701Y-4365853D01*
G37*
G36*
X6037732Y-4162348D02*
G01*
X6161582Y-4162348D01*
X6158534Y-4151020D01*
X6152134Y-4134358D01*
X6144006Y-4118457D01*
X6134303Y-4103471D01*
X6123076Y-4089603D01*
X6110478Y-4077004D01*
X6096609Y-4065778D01*
X6081623Y-4056024D01*
X6065723Y-4047947D01*
X6049060Y-4041546D01*
X6037732Y-4038498D01*
G37*
G36*
X5831179Y-4162348D02*
G01*
X5955030Y-4162348D01*
X5955030Y-4038498D01*
X5943701Y-4041546D01*
X5927039Y-4047947D01*
X5911138Y-4056024D01*
X5896152Y-4065778D01*
X5882284Y-4077004D01*
X5869686Y-4089603D01*
X5858459Y-4103471D01*
X5848705Y-4118457D01*
X5840628Y-4134358D01*
X5834227Y-4151020D01*
G37*
G36*
X5942330Y-3606901D02*
G01*
X5942330Y-3483051D01*
X5818479Y-3483051D01*
X5821527Y-3494379D01*
X5827928Y-3511042D01*
X5836005Y-3526942D01*
X5845759Y-3541928D01*
X5856986Y-3555796D01*
X5869584Y-3568395D01*
X5883452Y-3579622D01*
X5898438Y-3589375D01*
X5914339Y-3597452D01*
X5931001Y-3603853D01*
G37*
G36*
X6025032Y-3606901D02*
G01*
X6036360Y-3603853D01*
X6053023Y-3597452D01*
X6068923Y-3589375D01*
X6083909Y-3579622D01*
X6097778Y-3568395D01*
X6110376Y-3555796D01*
X6121603Y-3541928D01*
X6131306Y-3526942D01*
X6139434Y-3511042D01*
X6145834Y-3494379D01*
X6148882Y-3483051D01*
X6025032Y-3483051D01*
G37*
G36*
X5818479Y-3400348D02*
G01*
X5942330Y-3400348D01*
X5942330Y-3276498D01*
X5931001Y-3279546D01*
X5914339Y-3285947D01*
X5898438Y-3294024D01*
X5883452Y-3303778D01*
X5869584Y-3315004D01*
X5856986Y-3327603D01*
X5845759Y-3341471D01*
X5836005Y-3356457D01*
X5827928Y-3372358D01*
X5821527Y-3389020D01*
G37*
G36*
X6025032Y-3400348D02*
G01*
X6148882Y-3400348D01*
X6145834Y-3389020D01*
X6139434Y-3372358D01*
X6131306Y-3356457D01*
X6121603Y-3341471D01*
X6110376Y-3327603D01*
X6097778Y-3315004D01*
X6083909Y-3303778D01*
X6068923Y-3294024D01*
X6053023Y-3285947D01*
X6036360Y-3279546D01*
X6025032Y-3276498D01*
G37*
G36*
X4963718Y-2862884D02*
G01*
X4981549Y-2861970D01*
X4999177Y-2859176D01*
X5016398Y-2854553D01*
X5033060Y-2848152D01*
X5048961Y-2840075D01*
X5063947Y-2830322D01*
X5077815Y-2819095D01*
X5090414Y-2806496D01*
X5101640Y-2792628D01*
X5111394Y-2777642D01*
X5119471Y-2761742D01*
X5125872Y-2745079D01*
X5130495Y-2727858D01*
X5133289Y-2710230D01*
X5134203Y-2692400D01*
X5133289Y-2674569D01*
X5130495Y-2656941D01*
X5125872Y-2639720D01*
X5119471Y-2623058D01*
X5111394Y-2607157D01*
X5101640Y-2592171D01*
X5090414Y-2578303D01*
X5077815Y-2565704D01*
X5063947Y-2554478D01*
X5048961Y-2544724D01*
X5033060Y-2536647D01*
X5016398Y-2530246D01*
X4999177Y-2525623D01*
X4981549Y-2522829D01*
X4963718Y-2521915D01*
X4945888Y-2522829D01*
X4928260Y-2525623D01*
X4911039Y-2530246D01*
X4894376Y-2536647D01*
X4878476Y-2544724D01*
X4863490Y-2554478D01*
X4849622Y-2565704D01*
X4837023Y-2578303D01*
X4825796Y-2592171D01*
X4816094Y-2607157D01*
X4807966Y-2623058D01*
X4801565Y-2639720D01*
X4796942Y-2656941D01*
X4794148Y-2674569D01*
X4793234Y-2692400D01*
X4794148Y-2710230D01*
X4796942Y-2727858D01*
X4801565Y-2745079D01*
X4807966Y-2761742D01*
X4816094Y-2777642D01*
X4825796Y-2792628D01*
X4837023Y-2806496D01*
X4849622Y-2819095D01*
X4863490Y-2830322D01*
X4878476Y-2840075D01*
X4894376Y-2848152D01*
X4911039Y-2854553D01*
X4928260Y-2859176D01*
X4945888Y-2861970D01*
G37*
G36*
X5983681Y-2862884D02*
G01*
X6001512Y-2861970D01*
X6019139Y-2859176D01*
X6036360Y-2854553D01*
X6053023Y-2848152D01*
X6068923Y-2840075D01*
X6083909Y-2830322D01*
X6097778Y-2819095D01*
X6110376Y-2806496D01*
X6121603Y-2792628D01*
X6131306Y-2777642D01*
X6139434Y-2761742D01*
X6145834Y-2745079D01*
X6150457Y-2727858D01*
X6153251Y-2710230D01*
X6154166Y-2692400D01*
X6153251Y-2674569D01*
X6150457Y-2656941D01*
X6145834Y-2639720D01*
X6139434Y-2623058D01*
X6131306Y-2607157D01*
X6121603Y-2592171D01*
X6110376Y-2578303D01*
X6097778Y-2565704D01*
X6083909Y-2554478D01*
X6068923Y-2544724D01*
X6053023Y-2536647D01*
X6036360Y-2530246D01*
X6019139Y-2525623D01*
X6001512Y-2522829D01*
X5983681Y-2521915D01*
X5965850Y-2522829D01*
X5948222Y-2525623D01*
X5931001Y-2530246D01*
X5914339Y-2536647D01*
X5898438Y-2544724D01*
X5883452Y-2554478D01*
X5869584Y-2565704D01*
X5856986Y-2578303D01*
X5845759Y-2592171D01*
X5836005Y-2607157D01*
X5827928Y-2623058D01*
X5821527Y-2639720D01*
X5816904Y-2656941D01*
X5814110Y-2674569D01*
X5813196Y-2692400D01*
X5814110Y-2710230D01*
X5816904Y-2727858D01*
X5821527Y-2745079D01*
X5827928Y-2761742D01*
X5836005Y-2777642D01*
X5845759Y-2792628D01*
X5856986Y-2806496D01*
X5869584Y-2819095D01*
X5883452Y-2830322D01*
X5898438Y-2840075D01*
X5914339Y-2848152D01*
X5931001Y-2854553D01*
X5948222Y-2859176D01*
X5965850Y-2861970D01*
G37*
G36*
X5983681Y-2100884D02*
G01*
X6001512Y-2099970D01*
X6019139Y-2097176D01*
X6036360Y-2092553D01*
X6053023Y-2086152D01*
X6068923Y-2078075D01*
X6083909Y-2068322D01*
X6097778Y-2057095D01*
X6110376Y-2044496D01*
X6121603Y-2030628D01*
X6131306Y-2015642D01*
X6139434Y-1999742D01*
X6145834Y-1983079D01*
X6150457Y-1965858D01*
X6153251Y-1948230D01*
X6154166Y-1930400D01*
X6153251Y-1912569D01*
X6150457Y-1894941D01*
X6145834Y-1877720D01*
X6139434Y-1861057D01*
X6131306Y-1845157D01*
X6121603Y-1830171D01*
X6110376Y-1816303D01*
X6097778Y-1803704D01*
X6083909Y-1792478D01*
X6068923Y-1782724D01*
X6053023Y-1774647D01*
X6036360Y-1768246D01*
X6019139Y-1763623D01*
X6001512Y-1760829D01*
X5983681Y-1759915D01*
X5965850Y-1760829D01*
X5948222Y-1763623D01*
X5931001Y-1768246D01*
X5914339Y-1774647D01*
X5898438Y-1782724D01*
X5883452Y-1792478D01*
X5869584Y-1803704D01*
X5856986Y-1816303D01*
X5845759Y-1830171D01*
X5836005Y-1845157D01*
X5827928Y-1861057D01*
X5821527Y-1877720D01*
X5816904Y-1894941D01*
X5814110Y-1912569D01*
X5813196Y-1930400D01*
X5814110Y-1948230D01*
X5816904Y-1965858D01*
X5821527Y-1983079D01*
X5827928Y-1999742D01*
X5836005Y-2015642D01*
X5845759Y-2030628D01*
X5856986Y-2044496D01*
X5869584Y-2057095D01*
X5883452Y-2068322D01*
X5898438Y-2078075D01*
X5914339Y-2086152D01*
X5931001Y-2092553D01*
X5948222Y-2097176D01*
X5965850Y-2099970D01*
G37*
G36*
X4963718Y-2100884D02*
G01*
X4981549Y-2099970D01*
X4999177Y-2097176D01*
X5016398Y-2092553D01*
X5033060Y-2086152D01*
X5048961Y-2078075D01*
X5063947Y-2068322D01*
X5077815Y-2057095D01*
X5090414Y-2044496D01*
X5101640Y-2030628D01*
X5111394Y-2015642D01*
X5119471Y-1999742D01*
X5125872Y-1983079D01*
X5130495Y-1965858D01*
X5133289Y-1948230D01*
X5134203Y-1930400D01*
X5133289Y-1912569D01*
X5130495Y-1894941D01*
X5125872Y-1877720D01*
X5119471Y-1861057D01*
X5111394Y-1845157D01*
X5101640Y-1830171D01*
X5090414Y-1816303D01*
X5077815Y-1803704D01*
X5063947Y-1792478D01*
X5048961Y-1782724D01*
X5033060Y-1774647D01*
X5016398Y-1768246D01*
X4999177Y-1763623D01*
X4981549Y-1760829D01*
X4963718Y-1759915D01*
X4945888Y-1760829D01*
X4928260Y-1763623D01*
X4911039Y-1768246D01*
X4894376Y-1774647D01*
X4878476Y-1782724D01*
X4863490Y-1792478D01*
X4849622Y-1803704D01*
X4837023Y-1816303D01*
X4825796Y-1830171D01*
X4816094Y-1845157D01*
X4807966Y-1861057D01*
X4801565Y-1877720D01*
X4796942Y-1894941D01*
X4794148Y-1912569D01*
X4793234Y-1930400D01*
X4794148Y-1948230D01*
X4796942Y-1965858D01*
X4801565Y-1983079D01*
X4807966Y-1999742D01*
X4816094Y-2015642D01*
X4825796Y-2030628D01*
X4837023Y-2044496D01*
X4849622Y-2057095D01*
X4863490Y-2068322D01*
X4878476Y-2078075D01*
X4894376Y-2086152D01*
X4911039Y-2092553D01*
X4928260Y-2097176D01*
X4945888Y-2099970D01*
G37*
G36*
X5983681Y-576884D02*
G01*
X6001512Y-575970D01*
X6019139Y-573176D01*
X6036360Y-568553D01*
X6053023Y-562152D01*
X6068923Y-554075D01*
X6083909Y-544322D01*
X6097778Y-533095D01*
X6110376Y-520496D01*
X6121603Y-506628D01*
X6131306Y-491642D01*
X6139434Y-475742D01*
X6145834Y-459079D01*
X6150457Y-441858D01*
X6153251Y-424230D01*
X6154166Y-406400D01*
X6153251Y-388569D01*
X6150457Y-370941D01*
X6145834Y-353720D01*
X6139434Y-337058D01*
X6131306Y-321157D01*
X6121603Y-306171D01*
X6110376Y-292303D01*
X6097778Y-279704D01*
X6083909Y-268478D01*
X6068923Y-258724D01*
X6053023Y-250647D01*
X6036360Y-244246D01*
X6019139Y-239623D01*
X6001512Y-236829D01*
X5983681Y-235915D01*
X5965850Y-236829D01*
X5948222Y-239623D01*
X5931001Y-244246D01*
X5914339Y-250647D01*
X5898438Y-258724D01*
X5883452Y-268478D01*
X5869584Y-279704D01*
X5856986Y-292303D01*
X5845759Y-306171D01*
X5836005Y-321157D01*
X5827928Y-337058D01*
X5821527Y-353720D01*
X5816904Y-370941D01*
X5814110Y-388569D01*
X5813196Y-406400D01*
X5814110Y-424230D01*
X5816904Y-441858D01*
X5821527Y-459079D01*
X5827928Y-475742D01*
X5836005Y-491642D01*
X5845759Y-506628D01*
X5856986Y-520496D01*
X5869584Y-533095D01*
X5883452Y-544322D01*
X5898438Y-554075D01*
X5914339Y-562152D01*
X5931001Y-568553D01*
X5948222Y-573176D01*
X5965850Y-575970D01*
G37*
G36*
X4963718Y-576884D02*
G01*
X4981549Y-575970D01*
X4999177Y-573176D01*
X5016398Y-568553D01*
X5033060Y-562152D01*
X5048961Y-554075D01*
X5063947Y-544322D01*
X5077815Y-533095D01*
X5090414Y-520496D01*
X5101640Y-506628D01*
X5111394Y-491642D01*
X5119471Y-475742D01*
X5125872Y-459079D01*
X5130495Y-441858D01*
X5133289Y-424230D01*
X5134203Y-406400D01*
X5133289Y-388569D01*
X5130495Y-370941D01*
X5125872Y-353720D01*
X5119471Y-337058D01*
X5111394Y-321157D01*
X5101640Y-306171D01*
X5090414Y-292303D01*
X5077815Y-279704D01*
X5063947Y-268478D01*
X5048961Y-258724D01*
X5033060Y-250647D01*
X5016398Y-244246D01*
X4999177Y-239623D01*
X4981549Y-236829D01*
X4963718Y-235915D01*
X4945888Y-236829D01*
X4928260Y-239623D01*
X4911039Y-244246D01*
X4894376Y-250647D01*
X4878476Y-258724D01*
X4863490Y-268478D01*
X4849622Y-279704D01*
X4837023Y-292303D01*
X4825796Y-306171D01*
X4816094Y-321157D01*
X4807966Y-337058D01*
X4801565Y-353720D01*
X4796942Y-370941D01*
X4794148Y-388569D01*
X4793234Y-406400D01*
X4794148Y-424230D01*
X4796942Y-441858D01*
X4801565Y-459079D01*
X4807966Y-475742D01*
X4816094Y-491642D01*
X4825796Y-506628D01*
X4837023Y-520496D01*
X4849622Y-533095D01*
X4863490Y-544322D01*
X4878476Y-554075D01*
X4894376Y-562152D01*
X4911039Y-568553D01*
X4928260Y-573176D01*
X4945888Y-575970D01*
G37*

%LPD*%
D10*
X1507489Y-1965832D02*
G01*
X1462735Y-1921078D01*
X731773Y-1921078D01*
X571500Y-2081352D01*
X571500Y-2146300D01*
X2438400Y-2171700D02*
G01*
X1433372Y-2171700D01*
X1204772Y-2400300D01*
X825500Y-2400300D01*
X3695700Y-2679700D02*
G01*
X3817289Y-2679700D01*
X3923842Y-2786253D01*
X3923842Y-3252546D01*
X3729583Y-3446805D01*
X2443530Y-3446805D01*
X571500Y-3416300D02*
G01*
X507111Y-3416300D01*
X340766Y-3582644D01*
X340766Y-3782034D01*
X454202Y-3895470D01*
X1373225Y-3895470D01*
X2438400Y-2425700D02*
G01*
X1814017Y-2425700D01*
X1585417Y-2654300D01*
X825500Y-2654300D01*
X571500Y-3162300D02*
G01*
X471195Y-3162300D01*
X142722Y-2833827D01*
X142722Y-1982444D01*
X1982063Y-143103D01*
X3459124Y-143103D01*
X3556457Y-240436D01*
X3556457Y-990472D01*
X3022193Y-1524736D01*
X3150641Y-2338578D02*
G01*
X3237763Y-2425700D01*
X3695700Y-2425700D01*
X3657600Y-3240278D02*
G01*
X2365273Y-3240278D01*
X1494409Y-4111142D01*
X341528Y-4111142D01*
X4204258Y-3756431D02*
G01*
X4529124Y-3756431D01*
X4976393Y-4203700D01*
X4204258Y-3756431D02*
G01*
X4204258Y-3365804D01*
X4386097Y-3183966D01*
X4527575Y-3183966D01*
X2133600Y-4178300D02*
G01*
X2133600Y-4070095D01*
X2447264Y-3756431D01*
X4204258Y-3756431D01*
X2387600Y-4178300D02*
G01*
X2387600Y-4093413D01*
X2528468Y-3952544D01*
X4312411Y-3952544D01*
X4976393Y-4616526D01*
X4976393Y-4940300D01*
X5983706Y-3441700D02*
G01*
X5297043Y-3441700D01*
X4027043Y-2171700D01*
X3695700Y-2171700D01*
X2438400Y-2933700D02*
G01*
X2065934Y-2933700D01*
X1329334Y-3670300D01*
X825500Y-3670300D01*
X3695700Y-1917700D02*
G01*
X4034866Y-1917700D01*
X4158945Y-2041779D01*
X571500Y-2908300D02*
G01*
X491896Y-2908300D01*
X343001Y-2759405D01*
X343001Y-2055012D01*
X2029713Y-368300D01*
X2806700Y-368300D01*
X4397298Y-3441700D02*
G01*
X4963693Y-3441700D01*
X1879600Y-4178300D02*
G01*
X1879600Y-4249673D01*
X2079929Y-4450003D01*
X4441316Y-4450003D01*
X2438400Y-1917700D02*
G01*
X2891053Y-1917700D01*
X3370249Y-1438503D01*
X5726302Y-1438503D01*
X5983706Y-1181100D01*
D11*
G01*
X2438400Y-1663700D03*
D12*
G01*
X2438400Y-1917700D03*
G01*
X2438400Y-2171700D03*
G01*
X2438400Y-2425700D03*
G01*
X2438400Y-2679700D03*
G01*
X2438400Y-2933700D03*
D11*
G01*
X3695700Y-2933700D03*
D12*
G01*
X3695700Y-2679700D03*
G01*
X3695700Y-2425700D03*
G01*
X3695700Y-2171700D03*
G01*
X3695700Y-1917700D03*
G01*
X3695700Y-1663700D03*
D13*
G01*
X4963693Y-406400D03*
G01*
X5983706Y-406400D03*
G01*
X4963693Y-1181100D03*
G01*
X5983706Y-1181100D03*
G01*
X4963693Y-1930400D03*
G01*
X5983706Y-1930400D03*
G01*
X4963693Y-2692400D03*
G01*
X5983706Y-2692400D03*
G01*
X4963693Y-3441700D03*
G01*
X5983706Y-3441700D03*
G01*
X4976393Y-4203700D03*
G01*
X5996406Y-4203700D03*
G01*
X4976393Y-4940300D03*
G01*
X5996406Y-4940300D03*
G01*
X4976393Y-5727700D03*
G01*
X5996406Y-5727700D03*
D11*
G01*
X3314700Y-368300D03*
D12*
G01*
X3060700Y-368300D03*
G01*
X2806700Y-368300D03*
D11*
G01*
X825500Y-3670300D03*
D12*
G01*
X571500Y-3670300D03*
G01*
X825500Y-3416300D03*
G01*
X571500Y-3416300D03*
G01*
X825500Y-3162300D03*
G01*
X571500Y-3162300D03*
G01*
X825500Y-2908300D03*
G01*
X571500Y-2908300D03*
G01*
X825500Y-2654300D03*
G01*
X571500Y-2654300D03*
G01*
X825500Y-2400300D03*
G01*
X571500Y-2400300D03*
G01*
X825500Y-2146300D03*
G01*
X571500Y-2146300D03*
D11*
G01*
X4165600Y-4178300D03*
D12*
G01*
X3911600Y-4178300D03*
G01*
X3657600Y-4178300D03*
G01*
X3403600Y-4178300D03*
G01*
X3149600Y-4178300D03*
D11*
G01*
X2895600Y-4178300D03*
D12*
G01*
X2641600Y-4178300D03*
G01*
X2387600Y-4178300D03*
G01*
X2133600Y-4178300D03*
G01*
X1879600Y-4178300D03*
D14*
G01*
X4441316Y-4450003D03*
G01*
X4397298Y-3441700D03*
G01*
X4158945Y-2041779D03*
G01*
X4527575Y-3183966D03*
G01*
X341528Y-4111142D03*
G01*
X3657600Y-3240278D03*
G01*
X3150641Y-2338578D03*
G01*
X3022193Y-1524736D03*
G01*
X2443530Y-3446805D03*
G01*
X1373225Y-3895470D03*
G01*
X1507489Y-1965832D03*
M02*
